<svg xmlns="http://www.w3.org/2000/svg" viewBox="0 0 600 326">
<path d="M189.0 209.4L183.0 254.2L198.0 221.3L204.0 251.2L225.0 221.3L219.0 248.2L234.0 245.2L240.0 212.3L219.0 209.4L210.0 227.3L210.0 212.3ZM147.0 197.4L132.0 227.3L153.0 239.3L132.0 239.3L129.0 254.2L165.0 242.3L165.0 221.3L144.0 212.3L171.0 203.4L150.0 197.4ZM597.0 83.7L597.0 323.0L0.0 323.0L0.0 89.7ZM276.0 83.7L279.0 113.7L282.0 83.7ZM195.0 125.6L207.0 137.6L204.0 125.6ZM354.0 125.6L348.0 143.6L366.0 125.6ZM285.0 164.5L288.0 176.5L297.0 164.5ZM180.0 203.4L168.0 254.2L183.0 203.4Z" fill="none" stroke="#ffffff" stroke-width="1.5"/><path d="M189.0 209.4L183.0 254.2L198.0 221.3L204.0 251.2L225.0 221.3L219.0 248.2L234.0 245.2L240.0 212.3L219.0 209.4L210.0 227.3L210.0 212.3ZM147.0 197.4L132.0 227.3L153.0 239.3L132.0 239.3L129.0 254.2L165.0 242.3L165.0 221.3L144.0 212.3L171.0 203.4L150.0 197.4ZM597.0 83.7L597.0 323.0L0.0 323.0L0.0 89.7ZM276.0 83.7L279.0 113.7L282.0 83.7ZM195.0 125.6L207.0 137.6L204.0 125.6ZM354.0 125.6L348.0 143.6L366.0 125.6ZM285.0 164.5L288.0 176.5L297.0 164.5ZM180.0 203.4L168.0 254.2L183.0 203.4Z" fill="none" stroke="#ffffff" stroke-width="1.5"/></svg>