<svg xmlns="http://www.w3.org/2000/svg" viewBox="0 0 600 817">
<path d="M0.0 0.0L598.0 0.0L598.0 815.0L0.0 815.0Z" fill="none" stroke="#ffffff" stroke-width="1.5"/><path d="M255.1 604.6L263.3 598.5L287.8 598.5L295.9 604.6L287.8 614.8L265.3 612.8L255.1 606.6Z" fill="none" stroke="#ffffff" stroke-width="1.5"/><path d="M283.7 369.7L298.0 375.8L306.1 384.0L283.7 371.7Z" fill="none" stroke="#ffffff" stroke-width="1.5"/><path d="M244.9 386.0L251.0 384.0L244.9 388.1Z" fill="none" stroke="#ffffff" stroke-width="1.5"/><path d="M0.0 0.0L598.0 0.0L598.0 815.0L0.0 815.0Z" fill="none" stroke="#ffffff" stroke-width="1.5"/><path d="M255.1 604.6L263.3 598.5L287.8 598.5L295.9 604.6L287.8 614.8L265.3 612.8L255.1 606.6Z" fill="none" stroke="#ffffff" stroke-width="1.5"/><path d="M283.7 369.7L298.0 375.8L306.1 384.0L283.7 371.7Z" fill="none" stroke="#ffffff" stroke-width="1.5"/><path d="M244.9 386.0L251.0 384.0L244.9 388.1Z" fill="none" stroke="#ffffff" stroke-width="1.5"/><path d="M0.0 0.0L598.0 0.0L598.0 815.0L0.0 815.0Z" fill="none" stroke="#ffffff" stroke-width="1.5"/><path d="M255.1 604.6L267.3 600.5L273.5 606.6L273.5 612.8L255.1 606.6Z" fill="none" stroke="#ffffff" stroke-width="1.5"/><path d="M279.6 604.6L293.9 602.5L291.8 612.8L279.6 612.8Z" fill="none" stroke="#ffffff" stroke-width="1.5"/><path d="M283.7 369.7L306.1 384.0L283.7 371.7Z" fill="none" stroke="#ffffff" stroke-width="1.5"/><path d="M0.0 0.0L598.0 0.0L598.0 815.0L0.0 815.0Z" fill="none" stroke="#ffffff" stroke-width="1.5"/><path d="M255.1 604.6L273.5 606.6L255.1 606.6Z" fill="none" stroke="#ffffff" stroke-width="1.5"/><path d="M279.6 604.6L293.9 602.5L279.6 612.8Z" fill="none" stroke="#ffffff" stroke-width="1.5"/><path d="M0.0 0.0L598.0 0.0L598.0 815.0L0.0 815.0Z" fill="none" stroke="#ffffff" stroke-width="1.5"/><path d="M255.1 604.6L273.5 608.7L255.1 606.6Z" fill="none" stroke="#ffffff" stroke-width="1.5"/><path d="M279.6 604.6L293.9 604.6L279.6 612.8Z" fill="none" stroke="#ffffff" stroke-width="1.5"/><path d="M0.0 0.0L598.0 0.0L598.0 815.0L0.0 815.0Z" fill="none" stroke="#ffffff" stroke-width="1.5"/><path d="M255.1 606.6L271.4 604.6L257.1 608.7Z" fill="none" stroke="#ffffff" stroke-width="1.5"/><path d="M279.6 604.6L293.9 604.6L279.6 612.8Z" fill="none" stroke="#ffffff" stroke-width="1.5"/><path d="M0.0 0.0L598.0 0.0L598.0 815.0L0.0 815.0Z" fill="#272423" stroke="none"/><path d="M255.1 606.6L271.4 604.6L257.1 608.7Z" fill="#543227" stroke="none"/><path d="M279.6 604.6L293.9 604.6L279.6 612.8Z" fill="#5c352d" stroke="none"/><path d="M0.0 0.0L598.0 0.0L598.0 815.0L0.0 815.0Z" fill="#272423" stroke="none"/><path d="M255.1 606.6L271.4 604.6L257.1 608.7Z" fill="#543227" stroke="none"/><path d="M279.6 604.6L293.9 604.6L279.6 612.8Z" fill="#5c352d" stroke="none"/><path d="M0.0 0.0L598.0 0.0L598.0 815.0L0.0 815.0Z" fill="#272423" stroke="none"/><path d="M255.1 606.6L271.4 604.6L257.1 608.7Z" fill="#543227" stroke="none"/><path d="M279.6 604.6L293.9 604.6L279.6 612.8Z" fill="#5c352d" stroke="none"/><path d="M0.0 0.0L598.0 0.0L598.0 815.0L0.0 815.0Z" fill="none" stroke="#ffffff" stroke-width="1.5"/><path d="M255.1 606.6L271.4 604.6L257.1 608.7Z" fill="none" stroke="#ffffff" stroke-width="1.5"/><path d="M279.6 604.6L293.9 604.6L279.6 612.8Z" fill="none" stroke="#ffffff" stroke-width="1.5"/><path d="M0.0 0.0L598.0 0.0L598.0 815.0L0.0 815.0Z" fill="none" stroke="#ffffff" stroke-width="1.5"/><path d="M255.1 606.6L271.4 604.6L257.1 608.7Z" fill="none" stroke="#ffffff" stroke-width="1.5"/><path d="M279.6 604.6L293.9 604.6L279.6 612.8Z" fill="none" stroke="#ffffff" stroke-width="1.5"/></svg>