<svg xmlns="http://www.w3.org/2000/svg" viewBox="0 0 600 1015">
<path d="M0 0h600M0 8h600M0 16h600M0 24h600M0 32h600M0 40h600M0 48h600M0 56h600M0 64h600M0 72h600M0 80h600M0 88h600M0 96h600M0 104h600M0 112h600M0 120h600M0 128h600M0 136h600M0 144h600M0 152h600M0 160h600M0 168h600M0 176h600M0 184h600M0 192h600M0 200h600M0 208h600M0 216h600M0 224h600M0 232h600M0 240h600M0 248h600M0 256h600M0 264h600M0 272h600M0 280h600M0 288h600M0 296h600M0 304h600M0 312h600M0 320h600" fill="none" stroke="#54ad25" stroke-width="8"/></svg>